<svg xmlns="http://www.w3.org/2000/svg" width="600" height="600" viewBox="0 0 600 600" version="1.1"><path d="M 78.994 60.930 C 72.108 63.037, 65.959 68.239, 62.362 75 C 60.562 78.383, 60.500 85.894, 60.500 300 L 60.500 521.500 62.662 525.500 C 65.211 530.215, 70.114 535.039, 75 537.638 C 78.383 539.438, 85.894 539.500, 300 539.500 C 509.958 539.500, 521.669 539.408, 524.737 537.731 C 529.863 534.930, 534.932 530.036, 537.309 525.595 L 539.500 521.500 539.500 300 C 539.500 85.894, 539.438 78.383, 537.638 75 C 535.039 70.114, 530.215 65.211, 525.500 62.662 L 521.500 60.500 301.500 60.331 C 180.500 60.239, 80.372 60.508, 78.994 60.930" stroke="none" fill="#fc6c34" fill-rule="evenodd"/><path d="M 0 300.002 L 0 600.003 300.250 599.752 L 600.500 599.500 600.752 299.750 L 601.003 0 300.502 0 L 0 0 0 300.002 M 0.493 300.500 C 0.493 465.500, 0.609 532.851, 0.750 450.169 C 0.891 367.487, 0.891 232.487, 0.750 150.169 C 0.609 67.851, 0.493 135.500, 0.493 300.500 M 78.994 60.930 C 72.108 63.037, 65.959 68.239, 62.362 75 C 60.562 78.383, 60.500 85.894, 60.500 300 L 60.500 521.500 62.662 525.500 C 65.211 530.215, 70.114 535.039, 75 537.638 C 78.383 539.438, 85.894 539.500, 300 539.500 C 509.958 539.500, 521.669 539.408, 524.737 537.731 C 529.863 534.930, 534.932 530.036, 537.309 525.595 L 539.500 521.500 539.500 300 C 539.500 85.894, 539.438 78.383, 537.638 75 C 535.039 70.114, 530.215 65.211, 525.500 62.662 L 521.500 60.500 301.500 60.331 C 180.500 60.239, 80.372 60.508, 78.994 60.930" stroke="none" fill="#fcfbfb" fill-rule="evenodd"/></svg>